<mxfile host="app.diagrams.net" modified="2023-07-02T01:56:19.670Z" agent="Mozilla/5.0 (Macintosh; Intel Mac OS X 10_15_7) AppleWebKit/537.36 (KHTML, like Gecko) Chrome/114.0.0.0 Safari/537.36" etag="JSI63M-dXn_NVEKgiPGw" version="21.5.2" type="device">
  <diagram name="페이지-1" id="Ya2mxQcu8nMNhI-r3_ec">
    <mxGraphModel dx="2069" dy="796" grid="1" gridSize="10" guides="1" tooltips="1" connect="1" arrows="1" fold="1" page="1" pageScale="1" pageWidth="827" pageHeight="1169" math="0" shadow="0">
      <root>
        <mxCell id="0" />
        <mxCell id="1" parent="0" />
        <mxCell id="lJUMGXtzWH4a8Gjv_r63-1" value="&lt;font style=&quot;font-size: 14px;&quot;&gt;회원&lt;/font&gt;" style="rounded=0;whiteSpace=wrap;html=1;" vertex="1" parent="1">
          <mxGeometry x="55" y="300" width="110" height="40" as="geometry" />
        </mxCell>
        <mxCell id="lJUMGXtzWH4a8Gjv_r63-2" value="" style="endArrow=none;html=1;rounded=0;" edge="1" parent="1" target="lJUMGXtzWH4a8Gjv_r63-3">
          <mxGeometry width="50" height="50" relative="1" as="geometry">
            <mxPoint x="165" y="320" as="sourcePoint" />
            <mxPoint x="245" y="320" as="targetPoint" />
          </mxGeometry>
        </mxCell>
        <mxCell id="lJUMGXtzWH4a8Gjv_r63-3" value="&lt;span style=&quot;font-size: 14px;&quot;&gt;취향 정보&lt;br&gt;&lt;/span&gt;" style="rounded=0;whiteSpace=wrap;html=1;" vertex="1" parent="1">
          <mxGeometry x="230" y="300" width="120" height="40" as="geometry" />
        </mxCell>
        <mxCell id="lJUMGXtzWH4a8Gjv_r63-4" value="&lt;font style=&quot;font-size: 14px;&quot;&gt;장바구니&lt;br&gt;&lt;/font&gt;" style="rounded=0;whiteSpace=wrap;html=1;" vertex="1" parent="1">
          <mxGeometry x="50" y="410" width="120" height="40" as="geometry" />
        </mxCell>
        <mxCell id="lJUMGXtzWH4a8Gjv_r63-5" value="" style="endArrow=none;html=1;rounded=0;exitX=0.5;exitY=0;exitDx=0;exitDy=0;entryX=0.5;entryY=1;entryDx=0;entryDy=0;" edge="1" parent="1" source="lJUMGXtzWH4a8Gjv_r63-4" target="lJUMGXtzWH4a8Gjv_r63-1">
          <mxGeometry width="50" height="50" relative="1" as="geometry">
            <mxPoint x="65" y="390" as="sourcePoint" />
            <mxPoint x="115" y="340" as="targetPoint" />
          </mxGeometry>
        </mxCell>
        <mxCell id="lJUMGXtzWH4a8Gjv_r63-6" value="" style="endArrow=none;html=1;rounded=0;" edge="1" parent="1" target="lJUMGXtzWH4a8Gjv_r63-7">
          <mxGeometry width="50" height="50" relative="1" as="geometry">
            <mxPoint x="350" y="320" as="sourcePoint" />
            <mxPoint x="410" y="320" as="targetPoint" />
          </mxGeometry>
        </mxCell>
        <mxCell id="lJUMGXtzWH4a8Gjv_r63-7" value="&lt;font style=&quot;font-size: 14px;&quot;&gt;전용 상품 라인업&lt;/font&gt;" style="rounded=0;whiteSpace=wrap;html=1;" vertex="1" parent="1">
          <mxGeometry x="410" y="295" width="120" height="50" as="geometry" />
        </mxCell>
        <mxCell id="lJUMGXtzWH4a8Gjv_r63-8" value="주문" style="rounded=0;whiteSpace=wrap;html=1;" vertex="1" parent="1">
          <mxGeometry x="50" y="510" width="125" height="40" as="geometry" />
        </mxCell>
        <mxCell id="lJUMGXtzWH4a8Gjv_r63-11" value="상품" style="rounded=0;whiteSpace=wrap;html=1;" vertex="1" parent="1">
          <mxGeometry x="52.5" y="610" width="120" height="40" as="geometry" />
        </mxCell>
        <mxCell id="lJUMGXtzWH4a8Gjv_r63-12" value="원두" style="rounded=0;whiteSpace=wrap;html=1;" vertex="1" parent="1">
          <mxGeometry x="55" y="710" width="116" height="40" as="geometry" />
        </mxCell>
        <mxCell id="lJUMGXtzWH4a8Gjv_r63-13" value="홈카페 용품" style="rounded=0;whiteSpace=wrap;html=1;" vertex="1" parent="1">
          <mxGeometry x="175" y="710" width="120" height="40" as="geometry" />
        </mxCell>
        <mxCell id="lJUMGXtzWH4a8Gjv_r63-14" value="스타터 킷" style="rounded=0;whiteSpace=wrap;html=1;" vertex="1" parent="1">
          <mxGeometry x="-70" y="710" width="120" height="40" as="geometry" />
        </mxCell>
        <mxCell id="lJUMGXtzWH4a8Gjv_r63-15" value="" style="endArrow=classic;html=1;rounded=0;entryX=0;entryY=1;entryDx=0;entryDy=0;" edge="1" parent="1" target="lJUMGXtzWH4a8Gjv_r63-11">
          <mxGeometry width="50" height="50" relative="1" as="geometry">
            <mxPoint x="-5" y="710" as="sourcePoint" />
            <mxPoint x="45" y="660" as="targetPoint" />
          </mxGeometry>
        </mxCell>
        <mxCell id="lJUMGXtzWH4a8Gjv_r63-16" value="" style="endArrow=classic;html=1;rounded=0;entryX=0.946;entryY=1;entryDx=0;entryDy=0;entryPerimeter=0;" edge="1" parent="1" target="lJUMGXtzWH4a8Gjv_r63-11">
          <mxGeometry width="50" height="50" relative="1" as="geometry">
            <mxPoint x="235" y="710" as="sourcePoint" />
            <mxPoint x="175" y="660" as="targetPoint" />
          </mxGeometry>
        </mxCell>
        <mxCell id="lJUMGXtzWH4a8Gjv_r63-17" value="" style="endArrow=classic;html=1;rounded=0;entryX=0.5;entryY=1;entryDx=0;entryDy=0;" edge="1" parent="1" target="lJUMGXtzWH4a8Gjv_r63-11">
          <mxGeometry width="50" height="50" relative="1" as="geometry">
            <mxPoint x="112" y="710" as="sourcePoint" />
            <mxPoint x="115" y="660" as="targetPoint" />
          </mxGeometry>
        </mxCell>
        <mxCell id="lJUMGXtzWH4a8Gjv_r63-18" value="" style="endArrow=none;html=1;rounded=0;" edge="1" parent="1">
          <mxGeometry width="50" height="50" relative="1" as="geometry">
            <mxPoint x="115" y="610" as="sourcePoint" />
            <mxPoint x="115" y="550" as="targetPoint" />
          </mxGeometry>
        </mxCell>
        <mxCell id="lJUMGXtzWH4a8Gjv_r63-19" value="" style="endArrow=none;html=1;rounded=0;" edge="1" parent="1">
          <mxGeometry width="50" height="50" relative="1" as="geometry">
            <mxPoint x="109.5" y="510" as="sourcePoint" />
            <mxPoint x="110" y="450" as="targetPoint" />
          </mxGeometry>
        </mxCell>
        <mxCell id="lJUMGXtzWH4a8Gjv_r63-22" value="" style="endArrow=classic;html=1;rounded=0;exitX=0.5;exitY=0;exitDx=0;exitDy=0;" edge="1" parent="1" source="lJUMGXtzWH4a8Gjv_r63-7">
          <mxGeometry width="50" height="50" relative="1" as="geometry">
            <mxPoint x="504.5" y="295" as="sourcePoint" />
            <mxPoint y="710" as="targetPoint" />
            <Array as="points">
              <mxPoint x="470" y="260" />
              <mxPoint y="260" />
            </Array>
          </mxGeometry>
        </mxCell>
        <mxCell id="lJUMGXtzWH4a8Gjv_r63-24" value="1" style="text;html=1;align=center;verticalAlign=middle;resizable=0;points=[];autosize=1;strokeColor=none;fillColor=none;" vertex="1" parent="1">
          <mxGeometry x="115" y="338" width="30" height="30" as="geometry" />
        </mxCell>
        <mxCell id="lJUMGXtzWH4a8Gjv_r63-25" value="1" style="text;html=1;align=center;verticalAlign=middle;resizable=0;points=[];autosize=1;strokeColor=none;fillColor=none;" vertex="1" parent="1">
          <mxGeometry x="115" y="388" width="30" height="30" as="geometry" />
        </mxCell>
        <mxCell id="lJUMGXtzWH4a8Gjv_r63-26" value="1" style="text;html=1;align=center;verticalAlign=middle;resizable=0;points=[];autosize=1;strokeColor=none;fillColor=none;" vertex="1" parent="1">
          <mxGeometry x="115" y="448" width="30" height="30" as="geometry" />
        </mxCell>
        <mxCell id="lJUMGXtzWH4a8Gjv_r63-28" value="1" style="text;html=1;align=center;verticalAlign=middle;resizable=0;points=[];autosize=1;strokeColor=none;fillColor=none;" vertex="1" parent="1">
          <mxGeometry x="115" y="488" width="30" height="30" as="geometry" />
        </mxCell>
        <mxCell id="lJUMGXtzWH4a8Gjv_r63-29" value="1" style="text;html=1;align=center;verticalAlign=middle;resizable=0;points=[];autosize=1;strokeColor=none;fillColor=none;" vertex="1" parent="1">
          <mxGeometry x="115" y="548" width="30" height="30" as="geometry" />
        </mxCell>
        <mxCell id="lJUMGXtzWH4a8Gjv_r63-30" value="n" style="text;html=1;align=center;verticalAlign=middle;resizable=0;points=[];autosize=1;strokeColor=none;fillColor=none;" vertex="1" parent="1">
          <mxGeometry x="115" y="588" width="30" height="30" as="geometry" />
        </mxCell>
        <mxCell id="lJUMGXtzWH4a8Gjv_r63-31" value="1" style="text;html=1;align=center;verticalAlign=middle;resizable=0;points=[];autosize=1;strokeColor=none;fillColor=none;" vertex="1" parent="1">
          <mxGeometry x="155" y="298" width="30" height="30" as="geometry" />
        </mxCell>
        <mxCell id="lJUMGXtzWH4a8Gjv_r63-32" value="1" style="text;html=1;align=center;verticalAlign=middle;resizable=0;points=[];autosize=1;strokeColor=none;fillColor=none;" vertex="1" parent="1">
          <mxGeometry x="205" y="298" width="30" height="30" as="geometry" />
        </mxCell>
        <mxCell id="lJUMGXtzWH4a8Gjv_r63-33" value="1" style="text;html=1;align=center;verticalAlign=middle;resizable=0;points=[];autosize=1;strokeColor=none;fillColor=none;" vertex="1" parent="1">
          <mxGeometry x="345" y="298" width="30" height="30" as="geometry" />
        </mxCell>
        <mxCell id="lJUMGXtzWH4a8Gjv_r63-34" value="n" style="text;html=1;align=center;verticalAlign=middle;resizable=0;points=[];autosize=1;strokeColor=none;fillColor=none;" vertex="1" parent="1">
          <mxGeometry x="384" y="295" width="30" height="30" as="geometry" />
        </mxCell>
        <mxCell id="lJUMGXtzWH4a8Gjv_r63-35" value="배송" style="rounded=0;whiteSpace=wrap;html=1;" vertex="1" parent="1">
          <mxGeometry x="235" y="610" width="120" height="40" as="geometry" />
        </mxCell>
        <mxCell id="lJUMGXtzWH4a8Gjv_r63-36" value="" style="endArrow=none;html=1;rounded=0;entryX=0;entryY=0.5;entryDx=0;entryDy=0;exitX=1;exitY=1;exitDx=0;exitDy=0;" edge="1" parent="1" source="lJUMGXtzWH4a8Gjv_r63-8" target="lJUMGXtzWH4a8Gjv_r63-35">
          <mxGeometry width="50" height="50" relative="1" as="geometry">
            <mxPoint x="180" y="630" as="sourcePoint" />
            <mxPoint x="222.5" y="585" as="targetPoint" />
          </mxGeometry>
        </mxCell>
        <mxCell id="lJUMGXtzWH4a8Gjv_r63-38" value="1" style="text;html=1;align=center;verticalAlign=middle;resizable=0;points=[];autosize=1;strokeColor=none;fillColor=none;" vertex="1" parent="1">
          <mxGeometry x="220" y="588" width="30" height="30" as="geometry" />
        </mxCell>
        <mxCell id="lJUMGXtzWH4a8Gjv_r63-39" value="리뷰" style="rounded=0;whiteSpace=wrap;html=1;" vertex="1" parent="1">
          <mxGeometry x="235" y="510" width="120" height="40" as="geometry" />
        </mxCell>
        <mxCell id="lJUMGXtzWH4a8Gjv_r63-40" value="" style="endArrow=none;html=1;rounded=0;entryX=0;entryY=0.5;entryDx=0;entryDy=0;exitX=1;exitY=0.5;exitDx=0;exitDy=0;" edge="1" parent="1" source="lJUMGXtzWH4a8Gjv_r63-8" target="lJUMGXtzWH4a8Gjv_r63-39">
          <mxGeometry width="50" height="50" relative="1" as="geometry">
            <mxPoint x="175" y="538" as="sourcePoint" />
            <mxPoint x="225" y="488" as="targetPoint" />
          </mxGeometry>
        </mxCell>
        <mxCell id="lJUMGXtzWH4a8Gjv_r63-42" value="1" style="text;html=1;strokeColor=none;fillColor=none;align=center;verticalAlign=middle;whiteSpace=wrap;rounded=0;" vertex="1" parent="1">
          <mxGeometry x="175" y="540" width="20" height="20" as="geometry" />
        </mxCell>
        <mxCell id="lJUMGXtzWH4a8Gjv_r63-43" value="" style="endArrow=classic;html=1;rounded=0;entryX=0.5;entryY=1;entryDx=0;entryDy=0;exitX=0.5;exitY=0;exitDx=0;exitDy=0;" edge="1" parent="1" source="lJUMGXtzWH4a8Gjv_r63-35" target="lJUMGXtzWH4a8Gjv_r63-39">
          <mxGeometry width="50" height="50" relative="1" as="geometry">
            <mxPoint x="295" y="608" as="sourcePoint" />
            <mxPoint x="295" y="548" as="targetPoint" />
          </mxGeometry>
        </mxCell>
        <mxCell id="lJUMGXtzWH4a8Gjv_r63-44" value="1" style="text;html=1;align=center;verticalAlign=middle;resizable=0;points=[];autosize=1;strokeColor=none;fillColor=none;" vertex="1" parent="1">
          <mxGeometry x="170" y="498" width="30" height="30" as="geometry" />
        </mxCell>
        <mxCell id="lJUMGXtzWH4a8Gjv_r63-45" value="1" style="text;html=1;align=center;verticalAlign=middle;resizable=0;points=[];autosize=1;strokeColor=none;fillColor=none;" vertex="1" parent="1">
          <mxGeometry x="205" y="498" width="30" height="30" as="geometry" />
        </mxCell>
        <mxCell id="lJUMGXtzWH4a8Gjv_r63-46" value="" style="endArrow=classic;html=1;rounded=0;entryX=0.5;entryY=1;entryDx=0;entryDy=0;exitX=0.446;exitY=-0.037;exitDx=0;exitDy=0;exitPerimeter=0;" edge="1" parent="1" source="lJUMGXtzWH4a8Gjv_r63-39" target="lJUMGXtzWH4a8Gjv_r63-3">
          <mxGeometry width="50" height="50" relative="1" as="geometry">
            <mxPoint x="295" y="510" as="sourcePoint" />
            <mxPoint x="345" y="460" as="targetPoint" />
          </mxGeometry>
        </mxCell>
      </root>
    </mxGraphModel>
  </diagram>
</mxfile>
